<svg xmlns="http://www.w3.org/2000/svg" width="133" height="27.88" viewBox="0 0 133 27.88">
  <defs>
    <style>
      .cls-1 {
        fill: #ddceb1;
        fill-rule: evenodd;
      }
    </style>
  </defs>
  <path id="decor.svg" class="cls-1" d="M961.046,1223.19a0.624,0.624,0,0,1-1.1,0,14.284,14.284,0,0,0-4.059-5.41,0.6,0.6,0,0,1-.221-0.47,0.619,0.619,0,0,1,.224-0.47,14.154,14.154,0,0,0,4.056-5.41,0.608,0.608,0,0,1,1.1,0,14.15,14.15,0,0,0,4.059,5.41,0.618,0.618,0,0,1,.223.47,0.588,0.588,0,0,1-.223.47A14.3,14.3,0,0,0,961.046,1223.19Zm-0.551-10.13a15.039,15.039,0,0,1-3.3,4.25,15.227,15.227,0,0,1,3.3,4.26,15.3,15.3,0,0,1,3.3-4.26A15.114,15.114,0,0,1,960.5,1213.06Zm62.345,25.86H967.173a0.6,0.6,0,1,1,0-1.2h14.681c2.765,0,5.318.19,7.969-.84a8.13,8.13,0,0,0,4.279-3.49,0.606,0.606,0,0,1,.527-0.31,0.6,0.6,0,0,1,.523.31,8.482,8.482,0,0,0,5.058,3.76,23.426,23.426,0,0,0,7.09.57h15.52c1.39-.04,2.2-0.41,2.67-1.25a2.2,2.2,0,0,0,.17-1.82,1.657,1.657,0,0,0-.84-0.94,1.6,1.6,0,0,0-1.25-.06l-0.08.03c0.04,0.06.08,0.12,0.12,0.19a1.011,1.011,0,0,1,.08.78,1.027,1.027,0,0,1-1.9.19,1.272,1.272,0,0,1-.01-1.05,2.389,2.389,0,0,1,1.39-1.28,2.842,2.842,0,0,1,.95-0.17,2.9,2.9,0,0,1,1.22.28,2.823,2.823,0,0,1,1.45,1.62,3.42,3.42,0,0,1-.25,2.83A4.011,4.011,0,0,1,1022.84,1238.92Zm-28.211-4.12a9.333,9.333,0,0,1-3.645,2.92h7.287A9.3,9.3,0,0,1,994.629,1234.8Zm-27.568-4.19a0.591,0.591,0,0,1-.459.17,0.606,0.606,0,0,1-.435-0.22,7.237,7.237,0,0,0-11.34,0,0.62,0.62,0,0,1-.438.22,0.594,0.594,0,0,1-.459-0.17l-5.618-5.64a4.805,4.805,0,0,1-1.565-4.66,3.991,3.991,0,0,1,2.141-2.57,3.324,3.324,0,0,1,4.439,1.6,3.809,3.809,0,0,1,.244,1.49,1.332,1.332,0,0,1-.338.9,0.995,0.995,0,0,1-1.4-1.41,0.961,0.961,0,0,1,.464-0.26,1.686,1.686,0,0,0-.067-0.23,2.115,2.115,0,0,0-2.821-1,2.8,2.8,0,0,0-1.5,1.79c-0.321,1.19.061,2.24,1.264,3.51l5.151,5.17a8.424,8.424,0,0,1,12.343,0l5.15-5.17c1.206-1.27,1.586-2.32,1.265-3.51a2.8,2.8,0,0,0-1.5-1.79,2.112,2.112,0,0,0-2.818,1c-0.023.06-.047,0.14-0.071,0.23a0.947,0.947,0,0,1,.465.26,0.984,0.984,0,0,1,.291.7,0.991,0.991,0,0,1-1.694.71,1.337,1.337,0,0,1-.335-0.9,3.772,3.772,0,0,1,.244-1.49,3.322,3.322,0,0,1,4.439-1.6,3.979,3.979,0,0,1,2.138,2.57,4.806,4.806,0,0,1-1.562,4.66Zm-2.9,4.5a3.663,3.663,0,1,1-3.663-3.68A3.672,3.672,0,0,1,964.158,1235.11Zm-6.119,0a2.458,2.458,0,1,0,2.456-2.47A2.466,2.466,0,0,0,958.039,1235.11Zm-4.221,2.61a0.6,0.6,0,1,1,0,1.2H898.156a4.015,4.015,0,0,1-3.7-1.85,3.409,3.409,0,0,1-.253-2.83,2.821,2.821,0,0,1,1.453-1.62,2.889,2.889,0,0,1,1.218-.28,2.855,2.855,0,0,1,.95.17,2.4,2.4,0,0,1,1.4,1.28,1.244,1.244,0,0,1-.017,1.05,1.007,1.007,0,0,1-.609.51,1.031,1.031,0,0,1-1.288-.7,1.015,1.015,0,0,1,.079-0.78,1.109,1.109,0,0,1,.124-0.19l-0.089-.03a1.59,1.59,0,0,0-1.247.06,1.615,1.615,0,0,0-.835.94,2.176,2.176,0,0,0,.164,1.82c0.477,0.84,1.28,1.21,2.671,1.25H913.7a23.437,23.437,0,0,0,7.089-.57,8.47,8.47,0,0,0,5.053-3.76,0.606,0.606,0,0,1,.527-0.31,0.6,0.6,0,0,1,.523.31,8.132,8.132,0,0,0,4.283,3.49c2.648,1.03,5.2.84,7.969,0.84h14.678Zm-27.453-2.92a9.318,9.318,0,0,1-3.645,2.92h7.289A9.294,9.294,0,0,1,926.365,1234.8Zm15.749-1.31h9.295a0.612,0.612,0,0,1,.6.61,0.6,0.6,0,0,1-.6.6h-9.295a5.256,5.256,0,0,1-3.954-1.46,3.052,3.052,0,0,1-.75-2.43,1.866,1.866,0,0,1,.347-1.05,1.063,1.063,0,0,1,.712-0.34h0.062a1.033,1.033,0,0,1,.771,1.72,1.02,1.02,0,0,1-.689.34,1.812,1.812,0,0,0,.445.96A4.162,4.162,0,0,0,942.114,1233.49Zm36.766,1.21h-9.3a0.6,0.6,0,0,1-.6-0.6,0.608,0.608,0,0,1,.6-0.61h9.3a4.149,4.149,0,0,0,3.053-1.05,1.8,1.8,0,0,0,.444-0.96,1.013,1.013,0,0,1-.685-0.34,1.04,1.04,0,0,1,.085-1.46,1.027,1.027,0,0,1,.686-0.26h0.062a1.065,1.065,0,0,1,.711.34,1.883,1.883,0,0,1,.345,1.05,3.028,3.028,0,0,1-.751,2.43A5.249,5.249,0,0,1,978.88,1234.7Z" transform="translate(-894 -1211.06)"/>
</svg>

